<?xml version="1.0" encoding="UTF-8"?>
<!DOCTYPE svg PUBLIC "-//W3C//DTD SVG 1.1//EN" "http://www.w3.org/Graphics/SVG/1.1/DTD/svg11.dtd">
<svg xmlns="http://www.w3.org/2000/svg" version="1.1" width="200px" height="125px" style="shape-rendering:geometricPrecision; text-rendering:geometricPrecision; image-rendering:optimizeQuality; fill-rule:evenodd; clip-rule:evenodd" xmlns:xlink="http://www.w3.org/1999/xlink">
<g><path style="opacity:1" fill="#87b3f6" d="M 157.5,62.5 C 153.803,61.9922 150.136,61.3255 146.5,60.5C 146.5,55.1667 146.5,49.8333 146.5,44.5C 161.833,44.5 177.167,44.5 192.5,44.5C 192.5,46.8333 192.5,49.1667 192.5,51.5C 190.167,51.5 187.833,51.5 185.5,51.5C 185.5,58.1667 185.5,64.8333 185.5,71.5C 182.167,71.5 178.833,71.5 175.5,71.5C 175.5,64.8333 175.5,58.1667 175.5,51.5C 169.5,51.5 163.5,51.5 157.5,51.5C 157.5,52.5 157.5,53.5 157.5,54.5C 160.5,54.5 163.5,54.5 166.5,54.5C 166.5,56.8333 166.5,59.1667 166.5,61.5C 163.287,61.19 160.287,61.5233 157.5,62.5 Z"/></g>
<g><path style="opacity:1" fill="#61a5fa" d="M 121.5,60.5 C 111.162,60.716 100.829,61.0493 90.5,61.5C 90.5,56.1667 90.5,50.8333 90.5,45.5C 93.8499,45.335 97.1832,45.5017 100.5,46C 102.461,49.4212 104.294,52.9212 106,56.5C 107.706,52.9212 109.539,49.4212 111.5,46C 114.817,45.5017 118.15,45.335 121.5,45.5C 121.5,50.5 121.5,55.5 121.5,60.5 Z"/></g>
<g><path style="opacity:1" fill="#427eeb" d="M 51.5,46.5 C 50.8333,49.5 50.1667,52.5 49.5,55.5C 47.4168,53.3956 45.0835,53.0623 42.5,54.5C 40.1918,52.5293 37.8585,50.5293 35.5,48.5C 40.4588,45.4689 45.7921,44.8022 51.5,46.5 Z"/></g>
<g><path style="opacity:1" fill="#579af5" d="M 51.5,46.5 C 57.679,48.4964 60.679,52.8297 60.5,59.5C 56.8333,59.5 53.1667,59.5 49.5,59.5C 49.5,58.1667 49.5,56.8333 49.5,55.5C 50.1667,52.5 50.8333,49.5 51.5,46.5 Z"/></g>
<g><path style="opacity:1" fill="#356de4" d="M 16.5,45.5 C 21.2142,45.3531 25.8809,45.6864 30.5,46.5C 30.6646,49.5184 30.498,52.5184 30,55.5C 26.7441,53.5715 23.2441,53.0715 19.5,54C 15.5,57.3333 15.5,60.6667 19.5,64C 23.2441,64.9285 26.7441,64.4285 30,62.5C 30.498,65.4816 30.6646,68.4816 30.5,71.5C 23.977,73.1947 17.6436,72.6947 11.5,70C 6.74088,65.5092 5.24088,60.0092 7,53.5C 9.16084,49.4952 12.3275,46.8286 16.5,45.5 Z"/></g>
<g><path style="opacity:1" fill="#67a7f9" d="M 143.5,58.5 C 136.891,59.4226 130.224,59.7559 123.5,59.5C 123.5,54.8333 123.5,50.1667 123.5,45.5C 130.833,45.5 138.167,45.5 145.5,45.5C 145.5,47.8333 145.5,50.1667 145.5,52.5C 141.833,52.5 138.167,52.5 134.5,52.5C 134.5,53.5 134.5,54.5 134.5,55.5C 137.5,55.5 140.5,55.5 143.5,55.5C 143.5,56.5 143.5,57.5 143.5,58.5 Z"/></g>
<g><path style="opacity:1" fill="#366fe5" d="M 35.5,48.5 C 37.8585,50.5293 40.1918,52.5293 42.5,54.5C 41.6586,56.3792 41.3253,58.3792 41.5,60.5C 38.1353,61.0396 34.802,61.7063 31.5,62.5C 31.335,59.1501 31.5017,55.8168 32,52.5C 32.66,50.6763 33.8267,49.343 35.5,48.5 Z"/></g>
<g><path style="opacity:1" fill="#5ea2f9" d="M 88.5,60.5 C 79.4789,60.5989 70.4789,60.2655 61.5,59.5C 61.5,54.8333 61.5,50.1667 61.5,45.5C 64.5184,45.3354 67.5184,45.502 70.5,46C 73.388,49.2216 75.888,52.7216 78,56.5C 78.4986,52.8484 78.6653,49.1817 78.5,45.5C 81.8333,45.5 85.1667,45.5 88.5,45.5C 88.5,50.5 88.5,55.5 88.5,60.5 Z"/></g>
<g><path style="opacity:1" fill="#1e4fd8" d="M 61.5,59.5 C 70.4789,60.2655 79.4789,60.5989 88.5,60.5C 88.5,64.5 88.5,68.5 88.5,72.5C 85.4816,72.6646 82.4816,72.498 79.5,72C 77.3333,69.1667 75.1667,66.3333 73,63.5C 72.502,66.4816 72.3354,69.4816 72.5,72.5C 68.8333,72.5 65.1667,72.5 61.5,72.5C 61.5,68.1667 61.5,63.8333 61.5,59.5 Z"/></g>
<g><path style="opacity:1" fill="#b3c4f3" d="M 121.5,60.5 C 121.5,64.5 121.5,68.5 121.5,72.5C 118.167,72.5 114.833,72.5 111.5,72.5C 111.665,69.4816 111.498,66.4816 111,63.5C 109.651,66.9563 107.151,68.123 103.5,67C 102.874,66.2496 102.374,65.4162 102,64.5C 101.503,67.146 101.336,69.8127 101.5,72.5C 97.8333,72.5 94.1667,72.5 90.5,72.5C 90.5,68.8333 90.5,65.1667 90.5,61.5C 100.829,61.0493 111.162,60.716 121.5,60.5 Z"/></g>
<g><path style="opacity:1" fill="#93b8f5" d="M 146.5,60.5 C 150.136,61.3255 153.803,61.9922 157.5,62.5C 160.684,64.4136 164.351,65.0803 168.5,64.5C 168.5,66.8333 168.5,69.1667 168.5,71.5C 161.167,71.5 153.833,71.5 146.5,71.5C 146.5,67.8333 146.5,64.1667 146.5,60.5 Z"/></g>
<g><path style="opacity:1" fill="#2e64e0" d="M 41.5,60.5 C 41.9666,63.2974 43.6333,64.6308 46.5,64.5C 45.2264,66.9925 44.5597,69.6592 44.5,72.5C 37.2667,72.7363 32.9334,69.4029 31.5,62.5C 34.802,61.7063 38.1353,61.0396 41.5,60.5 Z"/></g>
<g><path style="opacity:1" fill="#2456db" d="M 49.5,59.5 C 53.1667,59.5 56.8333,59.5 60.5,59.5C 59.3986,68.9276 54.0653,73.261 44.5,72.5C 44.5597,69.6592 45.2264,66.9925 46.5,64.5C 48.7271,63.5994 49.7271,61.9328 49.5,59.5 Z"/></g>
<g><path style="opacity:1" fill="#acc1f3" d="M 143.5,58.5 C 143.5,59.8333 143.5,61.1667 143.5,62.5C 140.5,62.5 137.5,62.5 134.5,62.5C 134.5,63.5 134.5,64.5 134.5,65.5C 138.167,65.5 141.833,65.5 145.5,65.5C 145.5,67.8333 145.5,70.1667 145.5,72.5C 138.167,72.5 130.833,72.5 123.5,72.5C 123.5,68.1667 123.5,63.8333 123.5,59.5C 130.224,59.7559 136.891,59.4226 143.5,58.5 Z"/></g>
</svg>
